<svg width="355" height="268" viewBox="0 0 355 268" fill="none" xmlns="http://www.w3.org/2000/svg">
<path d="M0.504298 28.5C0.771106 12.9906 13.4269 0.5 29 0.5H326C341.573 0.5 354.229 12.9906 354.496 28.5H0.504298Z" fill="#030B31" stroke="url(#paint0_linear_101_3)"/>
<path d="M0.504298 28.5C0.771106 12.9906 13.4269 0.5 29 0.5H326C341.573 0.5 354.229 12.9906 354.496 28.5H0.504298Z" fill="url(#paint1_radial_101_3)" stroke="url(#paint2_linear_101_3)"/>
<rect x="0.5" y="26.5" width="354" height="241" fill="url(#paint3_linear_101_3)" stroke="url(#paint4_linear_101_3)"/>
<rect x="19.5" y="40.5" width="316" height="227" fill="url(#paint5_radial_101_3)" stroke="url(#paint6_linear_101_3)"/>
<defs>
<linearGradient id="paint0_linear_101_3" x1="177.5" y1="-53.5" x2="178.166" y2="28.9946" gradientUnits="userSpaceOnUse">
<stop stop-color="#E571F6"/>
<stop offset="1" stop-opacity="0"/>
</linearGradient>
<radialGradient id="paint1_radial_101_3" cx="0" cy="0" r="1" gradientUnits="userSpaceOnUse" gradientTransform="translate(178 29) rotate(-90) scale(197 2411.55)">
<stop stop-color="#0F0F38"/>
<stop offset="1" stop-color="#E571F6"/>
</radialGradient>
<linearGradient id="paint2_linear_101_3" x1="177.5" y1="0" x2="177.48" y2="32.8868" gradientUnits="userSpaceOnUse">
<stop stop-color="#E571F6"/>
<stop offset="1" stop-opacity="0"/>
</linearGradient>
<linearGradient id="paint3_linear_101_3" x1="177.5" y1="26" x2="177.5" y2="244.442" gradientUnits="userSpaceOnUse">
<stop stop-color="#0D0E37"/>
<stop offset="1" stop-color="#0D0E37"/>
</linearGradient>
<linearGradient id="paint4_linear_101_3" x1="177.5" y1="26" x2="177.5" y2="242.658" gradientUnits="userSpaceOnUse">
<stop stop-color="#E571F6" stop-opacity="0"/>
<stop offset="1" stop-color="#E571F6"/>
</linearGradient>
<radialGradient id="paint5_radial_101_3" cx="0" cy="0" r="1" gradientUnits="userSpaceOnUse" gradientTransform="translate(177.5 154) rotate(90) scale(114 158.5)">
<stop stop-color="#030A30"/>
<stop offset="1" stop-color="#030A30" stop-opacity="0"/>
</radialGradient>
<linearGradient id="paint6_linear_101_3" x1="177.5" y1="40" x2="177.5" y2="268" gradientUnits="userSpaceOnUse">
<stop stop-color="#E571F6"/>
<stop offset="0.232292" stop-color="#37ABD2" stop-opacity="0"/>
<stop offset="0.471875" stop-color="#E571F6"/>
<stop offset="0.747917" stop-color="#37ABD2" stop-opacity="0"/>
<stop offset="1" stop-color="#E571F6"/>
</linearGradient>
</defs>
</svg>
