<svg width="205" height="205" viewBox="0 0 205 205" fill="none" xmlns="http://www.w3.org/2000/svg">
<circle cx="102.5" cy="102.5" r="102.5" fill="url(#paint0_radial_101_2)"/>
<path d="M71.4674 80.2693V88.6376V97.2464C71.4674 97.4936 71.3043 97.773 70.9023 98.0045L70.8936 98.0096L70.8855 98.0156L65.3712 102.146L65.1967 102.245L65.1953 102.245C64.8496 102.444 64.4061 102.561 63.9412 102.589V83.0426L71.4674 80.2693Z" fill="url(#paint1_linear_101_2)" stroke="url(#paint2_linear_101_2)" stroke-width="0.335469"/>
<path d="M82.3896 80.5268V87.273V94.2599C82.3896 94.4454 82.2674 94.6634 81.9473 94.8479L81.9385 94.853L81.9304 94.859L77.4613 98.2102L77.3216 98.289L77.3203 98.2897C77.0534 98.4435 76.7118 98.536 76.3511 98.562V82.7541L82.3896 80.5268Z" fill="url(#paint3_linear_101_2)" stroke="url(#paint4_linear_101_2)" stroke-width="0.335469"/>
<path d="M95.9766 91.3272V99.0259V106.966C95.9766 107.188 95.8309 107.442 95.4648 107.654L95.456 107.659L95.448 107.665L90.3897 111.474L90.2303 111.564L90.229 111.565C89.9177 111.745 89.5188 111.851 89.0995 111.879V93.8746L95.9766 91.3272Z" fill="url(#paint5_linear_101_2)" stroke="url(#paint6_linear_101_2)" stroke-width="0.335469"/>
<path d="M54.8809 97.635L54.8809 67.6166L63.6031 71.028L63.6031 102.593C63.347 102.57 63.1064 102.504 62.9184 102.398L62.9179 102.398L62.7996 102.331L62.799 102.331L58.9991 100.185L55.199 98.0382C54.9594 97.9022 54.8809 97.7513 54.8809 97.635Z" fill="url(#paint7_linear_101_2)" stroke="url(#paint8_linear_101_2)" stroke-width="0.335469"/>
<path d="M68.9704 94.5527L68.9703 70.1332L76.0151 72.8892L76.0152 98.5596C75.8228 98.5385 75.644 98.4866 75.5036 98.4074L75.5032 98.4072L75.4068 98.3533L75.4062 98.353L72.3102 96.6037L69.2138 94.8544C69.0239 94.7466 68.9704 94.6321 68.9704 94.5527Z" fill="url(#paint9_linear_101_2)" stroke="url(#paint10_linear_101_2)" stroke-width="0.335469"/>
<path d="M80.7129 79.5908L80.7129 107.309C80.7129 107.41 80.7812 107.546 81.001 107.67L84.5196 109.653L88.038 111.637L88.0385 111.637L80.7129 79.5908ZM80.7129 79.5908L88.7641 82.7331L80.7129 79.5908ZM88.9319 111.886V112.053C88.8757 112.053 88.8197 112.05 88.7641 112.045V111.876C88.8193 111.882 88.8754 111.885 88.9319 111.886Z" fill="url(#paint11_linear_101_2)" stroke="url(#paint12_linear_101_2)" stroke-width="0.335469"/>
<path d="M104.796 94.1115L104.796 106.092C104.457 106.086 104.121 106.012 103.861 105.865L103.742 105.799L67.8085 85.4857L64.008 83.339C63.7395 83.1866 63.605 82.9895 63.605 82.7899L63.605 72.4024L104.796 94.1115Z" fill="url(#paint13_linear_101_2)"/>
<path d="M112.574 89.5839L112.657 89.4381L112.574 89.5839C112.808 89.7169 112.887 89.8675 112.887 89.9823C112.888 90.0967 112.812 90.2465 112.58 90.3793L104.979 94.7268L105.062 94.8724L104.979 94.7268C104.748 94.859 104.434 94.9299 104.11 94.9299C103.787 94.9299 103.472 94.859 103.239 94.7266L99.4134 92.5528L99.4127 92.5525L55.1939 67.6842C55.1938 67.6842 55.1937 67.6841 55.1936 67.6841C54.9597 67.5511 54.8815 67.4006 54.8809 67.2859C54.8802 67.1715 54.9561 67.0216 55.1882 66.8888C55.1882 66.8888 55.1882 66.8888 55.1882 66.8888L62.7871 62.5418L62.7871 62.5418C63.0181 62.4097 63.3321 62.3387 63.6557 62.3387C63.9793 62.3387 64.2944 62.4096 64.5275 62.5421L64.5281 62.5425L108.748 87.4104L108.749 87.4108L112.574 89.5839Z" fill="url(#paint14_linear_101_2)" stroke="url(#paint15_linear_101_2)" stroke-width="0.335469"/>
<path fill-rule="evenodd" clip-rule="evenodd" d="M143.797 131.643C153.456 122.032 154.679 102.051 146.528 87.0131C138.378 71.9754 123.94 67.5759 114.281 77.1865C104.622 86.7971 103.399 106.778 111.55 121.816C119.701 136.854 134.138 141.253 143.797 131.643ZM135.227 115.888C139.286 111.83 139.802 103.403 136.379 97.0646C132.955 90.7265 126.889 88.8779 122.829 92.9356C118.769 96.9933 118.253 105.421 121.677 111.759C125.101 118.097 131.167 119.946 135.227 115.888Z" fill="url(#paint16_linear_101_2)"/>
<mask id="path-11-inside-1_101_2" fill="white">
<path fill-rule="evenodd" clip-rule="evenodd" d="M137.053 132.217C144.628 122.741 144.481 103.138 136.725 88.4341C128.969 73.7298 116.542 69.4918 108.967 78.9683C101.393 88.4448 101.54 108.047 109.296 122.751C117.051 137.456 129.479 141.694 137.053 132.217ZM128.965 116.815C132.154 112.826 132.092 104.574 128.827 98.3837C125.562 92.1936 120.33 90.4095 117.142 94.3988C113.953 98.3882 114.015 106.64 117.28 112.83C120.545 119.02 125.777 120.804 128.965 116.815Z"/>
</mask>
<path fill-rule="evenodd" clip-rule="evenodd" d="M137.053 132.217C144.628 122.741 144.481 103.138 136.725 88.4341C128.969 73.7298 116.542 69.4918 108.967 78.9683C101.393 88.4448 101.54 108.047 109.296 122.751C117.051 137.456 129.479 141.694 137.053 132.217ZM128.965 116.815C132.154 112.826 132.092 104.574 128.827 98.3837C125.562 92.1936 120.33 90.4095 117.142 94.3988C113.953 98.3882 114.015 106.64 117.28 112.83C120.545 119.02 125.777 120.804 128.965 116.815Z" fill="url(#paint17_linear_101_2)"/>
<path d="M136.515 88.6961C140.364 95.9921 142.318 104.492 142.376 112.323C142.435 120.154 140.601 127.286 136.897 131.92L137.21 132.514C141.08 127.672 142.96 120.264 142.899 112.249C142.839 104.234 140.842 95.5803 136.934 88.172L136.515 88.6961ZM109.124 79.265C112.828 74.6309 117.736 73.3268 122.701 75.02C127.666 76.7131 132.667 81.4001 136.515 88.6961L136.934 88.172C133.027 80.7638 127.936 75.9797 122.855 74.2468C117.774 72.514 112.681 73.8292 108.811 78.6716L109.124 79.265ZM109.505 122.489C105.657 115.193 103.703 106.694 103.644 98.8627C103.585 91.0311 105.42 83.8992 109.124 79.265L108.811 78.6716C104.94 83.5139 103.061 90.9213 103.121 98.9362C103.181 106.951 105.179 115.605 109.086 123.013L109.505 122.489ZM136.897 131.92C133.193 136.555 128.284 137.859 123.319 136.165C118.355 134.472 113.353 129.785 109.505 122.489L109.086 123.013C112.994 130.422 118.084 135.206 123.165 136.939C128.247 138.671 133.339 137.356 137.21 132.514L136.897 131.92ZM128.618 98.6457C130.22 101.685 131.03 105.218 131.055 108.461C131.079 111.705 130.32 114.628 128.809 116.518L129.122 117.112C130.799 115.013 131.603 111.815 131.578 108.388C131.552 104.96 130.699 101.273 129.036 98.1216L128.618 98.6457ZM117.298 94.6955C118.809 92.805 120.822 92.2592 122.879 92.9605C124.935 93.6618 127.015 95.6068 128.618 98.6457L129.036 98.1216C127.374 94.9704 125.206 92.9284 123.033 92.1874C120.86 91.4464 118.663 92.0033 116.985 94.1021L117.298 94.6955ZM117.489 112.568C115.887 109.529 115.077 105.996 115.052 102.753C115.028 99.5087 115.787 96.5861 117.298 94.6955L116.985 94.1021C115.308 96.2009 114.504 99.3989 114.529 102.826C114.555 106.254 115.408 109.941 117.071 113.092L117.489 112.568ZM128.809 116.518C127.298 118.409 125.285 118.955 123.228 118.253C121.172 117.552 119.092 115.607 117.489 112.568L117.071 113.092C118.733 116.244 120.901 118.286 123.074 119.027C125.247 119.768 127.444 119.211 129.122 117.112L128.809 116.518Z" fill="#9DE3B5" mask="url(#path-11-inside-1_101_2)"/>
<defs>
<radialGradient id="paint0_radial_101_2" cx="0" cy="0" r="1" gradientUnits="userSpaceOnUse" gradientTransform="translate(103 98.5) rotate(133.884) scale(108.915)">
<stop stop-color="#97DDB0" stop-opacity="0.84"/>
<stop offset="1" stop-color="#061640" stop-opacity="0"/>
</radialGradient>
<linearGradient id="paint1_linear_101_2" x1="63.7734" y1="83.7062" x2="67.6313" y2="99.3055" gradientUnits="userSpaceOnUse">
<stop stop-color="#9DE3B5"/>
<stop offset="1" stop-color="#094E3D"/>
</linearGradient>
<linearGradient id="paint2_linear_101_2" x1="70.4525" y1="100.109" x2="62.5449" y2="99.2059" gradientUnits="userSpaceOnUse">
<stop stop-color="#9DE3B5"/>
<stop offset="0.0001" stop-color="#9DE3B5"/>
<stop offset="1" stop-color="#9DE3B5" stop-opacity="0.0697988"/>
</linearGradient>
<linearGradient id="paint3_linear_101_2" x1="80.6283" y1="92.7639" x2="76.1833" y2="98.2991" gradientUnits="userSpaceOnUse">
<stop stop-color="#9DE3B5"/>
<stop offset="1" stop-color="#094E3D"/>
</linearGradient>
<linearGradient id="paint4_linear_101_2" x1="81.5985" y1="96.5833" x2="75.1872" y2="95.8518" gradientUnits="userSpaceOnUse">
<stop stop-color="#9DE3B5"/>
<stop offset="0.0001" stop-color="#9DE3B5"/>
<stop offset="1" stop-color="#9DE3B5" stop-opacity="0.0697988"/>
</linearGradient>
<linearGradient id="paint5_linear_101_2" x1="92.4542" y1="88.8218" x2="99.2119" y2="93.494" gradientUnits="userSpaceOnUse">
<stop stop-color="#9DE3B5"/>
<stop offset="1" stop-color="#094E3D"/>
</linearGradient>
<linearGradient id="paint6_linear_101_2" x1="95.0593" y1="109.606" x2="87.8037" y2="108.781" gradientUnits="userSpaceOnUse">
<stop stop-color="#9DE3B5"/>
<stop offset="0.0001" stop-color="#9DE3B5"/>
<stop offset="1" stop-color="#9DE3B5" stop-opacity="0.0697988"/>
</linearGradient>
<linearGradient id="paint7_linear_101_2" x1="61.5903" y1="72.049" x2="54.7131" y2="97.5446" gradientUnits="userSpaceOnUse">
<stop stop-color="#9DE3B5"/>
<stop offset="1" stop-color="#094E3D"/>
</linearGradient>
<linearGradient id="paint8_linear_101_2" x1="56.4743" y1="96.5382" x2="52.8517" y2="93.1562" gradientUnits="userSpaceOnUse">
<stop stop-color="#9DE3B5"/>
<stop offset="1" stop-color="#9DE3B5" stop-opacity="0"/>
</linearGradient>
<linearGradient id="paint9_linear_101_2" x1="68.8026" y1="86.3069" x2="72.4927" y2="97.2935" gradientUnits="userSpaceOnUse">
<stop stop-color="#9DE3B5"/>
<stop offset="1" stop-color="#094E3D"/>
</linearGradient>
<linearGradient id="paint10_linear_101_2" x1="75.0727" y1="95.3704" x2="67.6057" y2="94.7395" gradientUnits="userSpaceOnUse">
<stop stop-color="#9DE3B5"/>
<stop offset="0.0001" stop-color="#9DE3B5"/>
<stop offset="1" stop-color="#9DE3B5" stop-opacity="0.0697988"/>
</linearGradient>
<linearGradient id="paint11_linear_101_2" x1="87.1706" y1="96.9574" x2="81.2999" y2="109.621" gradientUnits="userSpaceOnUse">
<stop stop-color="#9DE3B5"/>
<stop offset="1" stop-color="#094E3D"/>
</linearGradient>
<linearGradient id="paint12_linear_101_2" x1="87.6702" y1="108.236" x2="79.1853" y2="107.517" gradientUnits="userSpaceOnUse">
<stop stop-color="#9DE3B5"/>
<stop offset="0.0001" stop-color="#9DE3B5"/>
<stop offset="1" stop-color="#9DE3B5" stop-opacity="0.0697988"/>
</linearGradient>
<linearGradient id="paint13_linear_101_2" x1="63.6049" y1="72.4678" x2="92.2603" y2="89.0621" gradientUnits="userSpaceOnUse">
<stop stop-color="#9CE3B4"/>
<stop offset="1" stop-color="#094E3D"/>
</linearGradient>
<linearGradient id="paint14_linear_101_2" x1="58.8226" y1="68.778" x2="105.704" y2="87.8159" gradientUnits="userSpaceOnUse">
<stop stop-color="#9DE3B5"/>
<stop offset="1" stop-color="#084D3D"/>
</linearGradient>
<linearGradient id="paint15_linear_101_2" x1="104.279" y1="91.2544" x2="59.9967" y2="65.3394" gradientUnits="userSpaceOnUse">
<stop stop-color="#9DE3B5"/>
<stop offset="0.0001" stop-color="#9DE3B5"/>
<stop offset="1" stop-color="#9DE3B5" stop-opacity="0.0697988"/>
</linearGradient>
<linearGradient id="paint16_linear_101_2" x1="137.325" y1="83.7058" x2="155.196" y2="126.93" gradientUnits="userSpaceOnUse">
<stop stop-color="#9DE3B5"/>
<stop offset="1" stop-color="#094E3D"/>
</linearGradient>
<linearGradient id="paint17_linear_101_2" x1="135.98" y1="90.8353" x2="118.353" y2="122.926" gradientUnits="userSpaceOnUse">
<stop stop-color="#9DE3B5"/>
<stop offset="1" stop-color="#094E3D"/>
</linearGradient>
</defs>
</svg>
