<svg width="417" height="61" viewBox="0 0 417 61" fill="none" xmlns="http://www.w3.org/2000/svg">
<path d="M113.882 4.54701C114.522 2.44026 116.465 1 118.666 1H300.088C302.339 1 304.313 2.50491 304.909 4.6761L311.636 29.1761C311.874 30.0427 311.874 30.9573 311.636 31.8239L304.909 56.3239C304.313 58.4951 302.339 60 300.088 60H118.666C116.465 60 114.522 58.5597 113.882 56.453L106.441 31.953C106.154 31.0057 106.154 29.9943 106.441 29.047L113.882 4.54701Z" fill="url(#paint0_radial_1_243)"/>
<path d="M299 1H301.964C302.554 1 303.075 1.38507 303.247 1.94908L311.879 30.1065C311.958 30.3629 311.958 30.6371 311.879 30.8935L303.247 59.0509C303.075 59.6149 302.554 60 301.964 60H299" stroke="url(#paint1_radial_1_243)" stroke-width="2"/>
<path d="M118 1H115.036C114.446 1 113.925 1.38507 113.753 1.94908L105.121 30.1065C105.042 30.3629 105.042 30.6371 105.121 30.8935L113.753 59.0509C113.925 59.6149 114.446 60 115.036 60H118" stroke="url(#paint2_radial_1_243)" stroke-width="2"/>
<rect width="71" height="1" transform="matrix(-1 0 0 1 383 30)" fill="url(#paint3_linear_1_243)"/>
<rect x="34" y="30" width="71" height="1" fill="url(#paint4_linear_1_243)"/>
<path d="M170.872 40V23.008H173.896V37.312H181.12V40H170.872ZM184.772 33.088H190.676C190.676 32.288 190.444 31.624 189.98 31.096C189.516 30.568 188.844 30.304 187.964 30.304C187.116 30.304 186.388 30.568 185.78 31.096C185.172 31.624 184.836 32.288 184.772 33.088ZM193.556 34.384C193.556 34.72 193.548 34.976 193.532 35.152H184.772C184.836 35.952 185.188 36.624 185.828 37.168C186.468 37.712 187.212 37.984 188.06 37.984C189.388 37.984 190.404 37.488 191.108 36.496L193.028 38.032C191.892 39.568 190.244 40.336 188.084 40.336C186.276 40.336 184.788 39.792 183.62 38.704C182.468 37.616 181.892 36.152 181.892 34.312C181.892 32.472 182.468 30.984 183.62 29.848C184.772 28.712 186.228 28.144 187.988 28.144C189.652 28.144 190.996 28.68 192.02 29.752C193.044 30.824 193.556 32.368 193.556 34.384ZM199.273 40L194.617 28.48H197.761L200.785 36.88H200.833L203.881 28.48H206.929L202.345 40H199.273ZM210.858 33.088H216.762C216.762 32.288 216.53 31.624 216.066 31.096C215.602 30.568 214.93 30.304 214.05 30.304C213.202 30.304 212.474 30.568 211.866 31.096C211.258 31.624 210.922 32.288 210.858 33.088ZM219.642 34.384C219.642 34.72 219.634 34.976 219.618 35.152H210.858C210.922 35.952 211.274 36.624 211.914 37.168C212.554 37.712 213.298 37.984 214.146 37.984C215.474 37.984 216.49 37.488 217.194 36.496L219.114 38.032C217.978 39.568 216.33 40.336 214.17 40.336C212.362 40.336 210.874 39.792 209.706 38.704C208.554 37.616 207.978 36.152 207.978 34.312C207.978 32.472 208.554 30.984 209.706 29.848C210.858 28.712 212.314 28.144 214.074 28.144C215.738 28.144 217.082 28.68 218.106 29.752C219.13 30.824 219.642 32.368 219.642 34.384ZM222.479 40V21.856H225.359V40H222.479ZM239.821 40V26.512L236.461 29.272L234.781 27.28L240.085 23.008H242.701V40H239.821Z" fill="white"/>
<defs>
<radialGradient id="paint0_radial_1_243" cx="0" cy="0" r="1" gradientUnits="userSpaceOnUse" gradientTransform="translate(209.839 30.5) rotate(90) scale(75.641 276.836)">
<stop stop-color="#994CA5"/>
<stop offset="1" stop-color="#030A2F"/>
</radialGradient>
<radialGradient id="paint1_radial_1_243" cx="0" cy="0" r="1" gradientUnits="userSpaceOnUse" gradientTransform="translate(312 30.5) rotate(180) scale(40 216.139)">
<stop stop-color="#E571F6"/>
<stop offset="0.914583" stop-color="#E571F6" stop-opacity="0"/>
<stop offset="1" stop-color="#512C6C"/>
</radialGradient>
<radialGradient id="paint2_radial_1_243" cx="0" cy="0" r="1" gradientUnits="userSpaceOnUse" gradientTransform="translate(105 30.5) scale(40 216.139)">
<stop stop-color="#E571F6"/>
<stop offset="0.914583" stop-color="#E571F6" stop-opacity="0"/>
<stop offset="1" stop-color="#512C6C"/>
</radialGradient>
<linearGradient id="paint3_linear_1_243" x1="71" y1="0.49976" x2="0" y2="0.49976" gradientUnits="userSpaceOnUse">
<stop stop-color="#E571F6"/>
<stop offset="1" stop-color="#C4C4C4" stop-opacity="0"/>
</linearGradient>
<linearGradient id="paint4_linear_1_243" x1="105" y1="30.4998" x2="34" y2="30.4998" gradientUnits="userSpaceOnUse">
<stop stop-color="#E571F6"/>
<stop offset="1" stop-color="#C4C4C4" stop-opacity="0"/>
</linearGradient>
</defs>
</svg>
