<svg width="135" height="42" viewBox="0 0 135 42" fill="none" xmlns="http://www.w3.org/2000/svg">
<path d="M7.53595 4.41675C8.21717 2.37612 10.1273 1 12.2787 1H122.227C124.33 1 126.208 2.31558 126.926 4.29178L132.379 19.2918C132.78 20.3953 132.78 21.6047 132.379 22.7082L126.926 37.7082C126.208 39.6844 124.33 41 122.227 41H12.2787C10.1273 41 8.21718 39.6239 7.53596 37.5833L2.52853 22.5833C2.18548 21.5556 2.18548 20.4444 2.52853 19.4167L7.53595 4.41675Z" fill="url(#paint0_radial_1_238)"/>
<path d="M120 1H123.421C123.935 1 124.404 1.29302 124.628 1.7548L133.714 20.4122C133.894 20.7832 133.894 21.2168 133.714 21.5878L124.628 40.2452C124.404 40.707 123.935 41 123.421 41H120" stroke="url(#paint1_radial_1_238)" stroke-width="2"/>
<path d="M14 1H10.9099C10.3824 1 9.90383 1.30883 9.68652 1.78943L1.25013 20.4468C1.09113 20.7985 1.09112 21.2015 1.25013 21.5532L9.68652 40.2106C9.90383 40.6912 10.3824 41 10.9099 41H14" stroke="url(#paint2_radial_1_238)" stroke-width="2"/>
<path d="M39.404 27V14.256H41.672V24.984H47.09V27H39.404ZM49.829 21.816H54.257C54.257 21.216 54.083 20.718 53.735 20.322C53.387 19.926 52.883 19.728 52.223 19.728C51.587 19.728 51.041 19.926 50.585 20.322C50.129 20.718 49.877 21.216 49.829 21.816ZM56.417 22.788C56.417 23.04 56.411 23.232 56.399 23.364H49.829C49.877 23.964 50.141 24.468 50.621 24.876C51.101 25.284 51.659 25.488 52.295 25.488C53.291 25.488 54.053 25.116 54.581 24.372L56.021 25.524C55.169 26.676 53.933 27.252 52.313 27.252C50.957 27.252 49.841 26.844 48.965 26.028C48.101 25.212 47.669 24.114 47.669 22.734C47.669 21.354 48.101 20.238 48.965 19.386C49.829 18.534 50.921 18.108 52.241 18.108C53.489 18.108 54.497 18.51 55.265 19.314C56.033 20.118 56.417 21.276 56.417 22.788ZM60.7049 27L57.2129 18.36H59.5709L61.8389 24.66H61.8749L64.1609 18.36H66.4469L63.0089 27H60.7049ZM69.3934 21.816H73.8214C73.8214 21.216 73.6474 20.718 73.2994 20.322C72.9514 19.926 72.4474 19.728 71.7874 19.728C71.1514 19.728 70.6054 19.926 70.1494 20.322C69.6934 20.718 69.4414 21.216 69.3934 21.816ZM75.9814 22.788C75.9814 23.04 75.9754 23.232 75.9634 23.364H69.3934C69.4414 23.964 69.7054 24.468 70.1854 24.876C70.6654 25.284 71.2234 25.488 71.8594 25.488C72.8554 25.488 73.6174 25.116 74.1454 24.372L75.5854 25.524C74.7334 26.676 73.4974 27.252 71.8774 27.252C70.5214 27.252 69.4054 26.844 68.5294 26.028C67.6654 25.212 67.2334 24.114 67.2334 22.734C67.2334 21.354 67.6654 20.238 68.5294 19.386C69.3934 18.534 70.4854 18.108 71.8054 18.108C73.0534 18.108 74.0614 18.51 74.8294 19.314C75.5974 20.118 75.9814 21.276 75.9814 22.788ZM78.1093 27V13.392H80.2693V27H78.1093ZM89.9098 21.222V19.494H90.4858C92.2978 19.494 93.2038 18.852 93.2038 17.568C93.2038 17.016 93.0058 16.572 92.6098 16.236C92.2258 15.9 91.7518 15.732 91.1878 15.732C90.6718 15.732 90.2338 15.882 89.8738 16.182C89.5258 16.482 89.2858 16.878 89.1538 17.37L87.1198 16.848C87.3478 15.984 87.8458 15.282 88.6138 14.742C89.3818 14.202 90.2698 13.932 91.2778 13.932C92.4538 13.932 93.4318 14.238 94.2118 14.85C94.9918 15.462 95.3818 16.32 95.3818 17.424C95.3818 18.108 95.1718 18.72 94.7518 19.26C94.3318 19.788 93.7798 20.136 93.0958 20.304V20.34C93.8758 20.496 94.5058 20.85 94.9858 21.402C95.4778 21.954 95.7238 22.62 95.7238 23.4C95.7238 24.636 95.2798 25.602 94.3918 26.298C93.5038 26.982 92.4658 27.324 91.2778 27.324C90.1498 27.324 89.1778 27.078 88.3618 26.586C87.5458 26.094 86.9758 25.338 86.6518 24.318L88.6678 23.688C88.8238 24.216 89.1238 24.648 89.5678 24.984C90.0118 25.32 90.5578 25.488 91.2058 25.488C91.8418 25.488 92.3878 25.314 92.8438 24.966C93.3118 24.618 93.5458 24.09 93.5458 23.382C93.5458 22.866 93.3718 22.44 93.0238 22.104C92.6878 21.756 92.2978 21.522 91.8538 21.402C91.4218 21.282 90.9538 21.222 90.4498 21.222H89.9098Z" fill="white"/>
<defs>
<radialGradient id="paint0_radial_1_238" cx="0" cy="0" r="1" gradientUnits="userSpaceOnUse" gradientTransform="translate(67.4565 21) rotate(88.8467) scale(27.0055 90.3164)">
<stop stop-color="#6C718E"/>
<stop offset="1" stop-color="#4F4F4F"/>
</radialGradient>
<radialGradient id="paint1_radial_1_238" cx="0" cy="0" r="1" gradientUnits="userSpaceOnUse" gradientTransform="translate(134 21) rotate(180) scale(18.2609 62.1182)">
<stop stop-color="white"/>
<stop offset="1" stop-opacity="0"/>
</radialGradient>
<radialGradient id="paint2_radial_1_238" cx="0" cy="0" r="1" gradientUnits="userSpaceOnUse" gradientTransform="translate(1 21) scale(16.9565 62.1182)">
<stop stop-color="white"/>
<stop offset="1" stop-opacity="0"/>
</radialGradient>
</defs>
</svg>
