<svg width="135" height="42" viewBox="0 0 135 42" fill="none" xmlns="http://www.w3.org/2000/svg">
<path d="M7.53595 4.41675C8.21717 2.37612 10.1273 1 12.2787 1H122.227C124.33 1 126.208 2.31557 126.926 4.29178L132.379 19.2918C132.78 20.3953 132.78 21.6047 132.379 22.7082L126.926 37.7082C126.208 39.6844 124.33 41 122.227 41H12.2787C10.1273 41 8.21718 39.6239 7.53596 37.5833L2.52853 22.5833C2.18548 21.5556 2.18548 20.4444 2.52853 19.4167L7.53595 4.41675Z" fill="url(#paint0_radial_1_233)"/>
<path d="M120 1H123.421C123.935 1 124.404 1.29302 124.628 1.7548L133.714 20.4122C133.894 20.7832 133.894 21.2168 133.714 21.5878L124.628 40.2452C124.404 40.707 123.935 41 123.421 41H120" stroke="url(#paint1_radial_1_233)" stroke-width="2"/>
<path d="M14 1H10.9099C10.3824 1 9.90383 1.30883 9.68652 1.78943L1.25013 20.4468C1.09113 20.7985 1.09112 21.2015 1.25013 21.5532L9.68652 40.2106C9.90383 40.6912 10.3824 41 10.9099 41H14" stroke="url(#paint2_radial_1_233)" stroke-width="2"/>
<path d="M38.404 27V14.256H40.672V24.984H46.09V27H38.404ZM48.829 21.816H53.257C53.257 21.216 53.083 20.718 52.735 20.322C52.387 19.926 51.883 19.728 51.223 19.728C50.587 19.728 50.041 19.926 49.585 20.322C49.129 20.718 48.877 21.216 48.829 21.816ZM55.417 22.788C55.417 23.04 55.411 23.232 55.399 23.364H48.829C48.877 23.964 49.141 24.468 49.621 24.876C50.101 25.284 50.659 25.488 51.295 25.488C52.291 25.488 53.053 25.116 53.581 24.372L55.021 25.524C54.169 26.676 52.933 27.252 51.313 27.252C49.957 27.252 48.841 26.844 47.965 26.028C47.101 25.212 46.669 24.114 46.669 22.734C46.669 21.354 47.101 20.238 47.965 19.386C48.829 18.534 49.921 18.108 51.241 18.108C52.489 18.108 53.497 18.51 54.265 19.314C55.033 20.118 55.417 21.276 55.417 22.788ZM59.7049 27L56.2129 18.36H58.5709L60.8389 24.66H60.8749L63.1609 18.36H65.4469L62.0089 27H59.7049ZM68.3934 21.816H72.8214C72.8214 21.216 72.6474 20.718 72.2994 20.322C71.9514 19.926 71.4474 19.728 70.7874 19.728C70.1514 19.728 69.6054 19.926 69.1494 20.322C68.6934 20.718 68.4414 21.216 68.3934 21.816ZM74.9814 22.788C74.9814 23.04 74.9754 23.232 74.9634 23.364H68.3934C68.4414 23.964 68.7054 24.468 69.1854 24.876C69.6654 25.284 70.2234 25.488 70.8594 25.488C71.8554 25.488 72.6174 25.116 73.1454 24.372L74.5854 25.524C73.7334 26.676 72.4974 27.252 70.8774 27.252C69.5214 27.252 68.4054 26.844 67.5294 26.028C66.6654 25.212 66.2334 24.114 66.2334 22.734C66.2334 21.354 66.6654 20.238 67.5294 19.386C68.3934 18.534 69.4854 18.108 70.8054 18.108C72.0534 18.108 73.0614 18.51 73.8294 19.314C74.5974 20.118 74.9814 21.276 74.9814 22.788ZM77.1093 27V13.392H79.2693V27H77.1093ZM86.3358 27V25.02L91.2498 20.196C92.1138 19.356 92.5458 18.522 92.5458 17.694C92.5458 17.106 92.3538 16.632 91.9698 16.272C91.5858 15.912 91.0998 15.732 90.5118 15.732C89.9118 15.732 89.4198 15.936 89.0358 16.344C88.6638 16.74 88.4358 17.262 88.3518 17.91L86.2458 17.586C86.3778 16.518 86.8398 15.642 87.6318 14.958C88.4238 14.274 89.3958 13.932 90.5478 13.932C91.7238 13.932 92.7258 14.262 93.5538 14.922C94.3818 15.582 94.7958 16.494 94.7958 17.658C94.7958 18.414 94.6158 19.092 94.2558 19.692C93.9078 20.28 93.4038 20.886 92.7438 21.51L89.0718 25.02H94.8138V27H86.3358Z" fill="white"/>
<defs>
<radialGradient id="paint0_radial_1_233" cx="0" cy="0" r="1" gradientUnits="userSpaceOnUse" gradientTransform="translate(67.4565 21) rotate(88.8467) scale(27.0055 90.3164)">
<stop stop-color="#6C718E"/>
<stop offset="1" stop-color="#4F4F4F"/>
</radialGradient>
<radialGradient id="paint1_radial_1_233" cx="0" cy="0" r="1" gradientUnits="userSpaceOnUse" gradientTransform="translate(134 21) rotate(180) scale(18.2609 62.1182)">
<stop stop-color="white"/>
<stop offset="1" stop-opacity="0"/>
</radialGradient>
<radialGradient id="paint2_radial_1_233" cx="0" cy="0" r="1" gradientUnits="userSpaceOnUse" gradientTransform="translate(1 21) scale(16.9565 62.1182)">
<stop stop-color="white"/>
<stop offset="1" stop-opacity="0"/>
</radialGradient>
</defs>
</svg>
